<mxfile host="app.diagrams.net" agent="Mozilla/5.0 (Windows NT 10.0; Win64; x64) AppleWebKit/537.36 (KHTML, like Gecko) Chrome/131.0.0.0 Safari/537.36 OPR/116.0.0.0" version="26.1.0">
  <diagram name="Page-1" id="7nRBMvWROOH-cndJ2l8r">
    <mxGraphModel dx="1152" dy="633" grid="1" gridSize="10" guides="1" tooltips="1" connect="1" arrows="1" fold="1" page="1" pageScale="1" pageWidth="850" pageHeight="1100" math="0" shadow="0">
      <root>
        <mxCell id="0" />
        <mxCell id="1" parent="0" />
        <mxCell id="rh8_w1IoDhliuncmIyZ2-6" value="GUI" style="shape=umlFrame;whiteSpace=wrap;html=1;pointerEvents=0;" parent="1" vertex="1">
          <mxGeometry x="480" y="360" width="720" height="410" as="geometry" />
        </mxCell>
        <mxCell id="rh8_w1IoDhliuncmIyZ2-7" value="Player" style="shape=umlActor;verticalLabelPosition=bottom;verticalAlign=top;html=1;" parent="1" vertex="1">
          <mxGeometry x="370" y="480" width="80" height="160" as="geometry" />
        </mxCell>
        <mxCell id="rh8_w1IoDhliuncmIyZ2-8" value="Opponent" style="shape=umlActor;verticalLabelPosition=bottom;verticalAlign=top;html=1;" parent="1" vertex="1">
          <mxGeometry x="1210" y="360" width="80" height="160" as="geometry" />
        </mxCell>
        <mxCell id="rh8_w1IoDhliuncmIyZ2-14" value="Game Select" style="ellipse;whiteSpace=wrap;html=1;" parent="1" vertex="1">
          <mxGeometry x="540" y="480" width="100" height="60" as="geometry" />
        </mxCell>
        <mxCell id="rh8_w1IoDhliuncmIyZ2-15" value="Check Leaderboard" style="ellipse;whiteSpace=wrap;html=1;" parent="1" vertex="1">
          <mxGeometry x="740" y="580" width="100" height="60" as="geometry" />
        </mxCell>
        <mxCell id="rh8_w1IoDhliuncmIyZ2-16" value="Login" style="ellipse;whiteSpace=wrap;html=1;" parent="1" vertex="1">
          <mxGeometry x="490" y="580" width="100" height="60" as="geometry" />
        </mxCell>
        <mxCell id="rh8_w1IoDhliuncmIyZ2-17" value="Challenge A User" style="ellipse;whiteSpace=wrap;html=1;" parent="1" vertex="1">
          <mxGeometry x="870" y="510" width="100" height="60" as="geometry" />
        </mxCell>
        <mxCell id="rh8_w1IoDhliuncmIyZ2-18" value="Create Account" style="ellipse;whiteSpace=wrap;html=1;" parent="1" vertex="1">
          <mxGeometry x="640" y="680" width="100" height="60" as="geometry" />
        </mxCell>
        <mxCell id="rh8_w1IoDhliuncmIyZ2-19" value="Connect 4" style="ellipse;whiteSpace=wrap;html=1;" parent="1" vertex="1">
          <mxGeometry x="940" y="366" width="100" height="40" as="geometry" />
        </mxCell>
        <mxCell id="rh8_w1IoDhliuncmIyZ2-20" value="Chess&lt;span style=&quot;color: rgba(0, 0, 0, 0); font-family: monospace; font-size: 0px; text-align: start; text-wrap-mode: nowrap;&quot;&gt;%3CmxGraphModel%3E%3Croot%3E%3CmxCell%20id%3D%220%22%2F%3E%3CmxCell%20id%3D%221%22%20parent%3D%220%22%2F%3E%3CmxCell%20id%3D%222%22%20value%3D%22Connect%204%22%20style%3D%22ellipse%3BwhiteSpace%3Dwrap%3Bhtml%3D1%3B%22%20vertex%3D%221%22%20parent%3D%221%22%3E%3CmxGeometry%20x%3D%22740%22%20y%3D%22350%22%20width%3D%22100%22%20height%3D%2240%22%20as%3D%22geometry%22%2F%3E%3C%2FmxCell%3E%3C%2Froot%3E%3C%2FmxGraphModel%3E&lt;/span&gt;" style="ellipse;whiteSpace=wrap;html=1;" parent="1" vertex="1">
          <mxGeometry x="940" y="420" width="100" height="40" as="geometry" />
        </mxCell>
        <mxCell id="rh8_w1IoDhliuncmIyZ2-21" value="TicTacToe" style="ellipse;whiteSpace=wrap;html=1;" parent="1" vertex="1">
          <mxGeometry x="940" y="474" width="100" height="40" as="geometry" />
        </mxCell>
        <mxCell id="rh8_w1IoDhliuncmIyZ2-22" value="&amp;lt;&amp;lt;includes&amp;gt;&amp;gt;" style="html=1;verticalAlign=bottom;labelBackgroundColor=none;endArrow=open;endFill=0;dashed=1;rounded=0;exitX=1;exitY=0;exitDx=0;exitDy=0;entryX=0;entryY=0.5;entryDx=0;entryDy=0;" parent="1" source="rh8_w1IoDhliuncmIyZ2-40" target="rh8_w1IoDhliuncmIyZ2-19" edge="1">
          <mxGeometry width="160" relative="1" as="geometry">
            <mxPoint x="650" y="359.13" as="sourcePoint" />
            <mxPoint x="810" y="359.13" as="targetPoint" />
          </mxGeometry>
        </mxCell>
        <mxCell id="rh8_w1IoDhliuncmIyZ2-23" value="In Game Chat" style="ellipse;whiteSpace=wrap;html=1;" parent="1" vertex="1">
          <mxGeometry x="1090" y="410" width="100" height="60" as="geometry" />
        </mxCell>
        <mxCell id="rh8_w1IoDhliuncmIyZ2-24" value="&amp;lt;&amp;lt;includes&amp;gt;&amp;gt;" style="html=1;verticalAlign=bottom;labelBackgroundColor=none;endArrow=open;endFill=0;dashed=1;rounded=0;exitX=1;exitY=0.5;exitDx=0;exitDy=0;entryX=0;entryY=0.5;entryDx=0;entryDy=0;" parent="1" source="rh8_w1IoDhliuncmIyZ2-40" target="rh8_w1IoDhliuncmIyZ2-20" edge="1">
          <mxGeometry width="160" relative="1" as="geometry">
            <mxPoint x="625" y="379" as="sourcePoint" />
            <mxPoint x="770" y="350" as="targetPoint" />
          </mxGeometry>
        </mxCell>
        <mxCell id="rh8_w1IoDhliuncmIyZ2-25" value="&amp;lt;&amp;lt;includes&amp;gt;&amp;gt;" style="html=1;verticalAlign=bottom;labelBackgroundColor=none;endArrow=open;endFill=0;dashed=1;rounded=0;exitX=1;exitY=1;exitDx=0;exitDy=0;entryX=0;entryY=0.5;entryDx=0;entryDy=0;" parent="1" source="rh8_w1IoDhliuncmIyZ2-40" target="rh8_w1IoDhliuncmIyZ2-21" edge="1">
          <mxGeometry width="160" relative="1" as="geometry">
            <mxPoint x="635" y="389" as="sourcePoint" />
            <mxPoint x="780" y="360" as="targetPoint" />
          </mxGeometry>
        </mxCell>
        <mxCell id="rh8_w1IoDhliuncmIyZ2-26" value="&amp;lt;&amp;lt;includes&amp;gt;&amp;gt;" style="html=1;verticalAlign=bottom;labelBackgroundColor=none;endArrow=open;endFill=0;dashed=1;rounded=0;exitX=1;exitY=0.5;exitDx=0;exitDy=0;entryX=0;entryY=0;entryDx=0;entryDy=0;" parent="1" source="rh8_w1IoDhliuncmIyZ2-19" target="rh8_w1IoDhliuncmIyZ2-23" edge="1">
          <mxGeometry width="160" relative="1" as="geometry">
            <mxPoint x="625" y="379" as="sourcePoint" />
            <mxPoint x="770" y="350" as="targetPoint" />
          </mxGeometry>
        </mxCell>
        <mxCell id="rh8_w1IoDhliuncmIyZ2-27" value="&amp;lt;&amp;lt;includes&amp;gt;&amp;gt;" style="html=1;verticalAlign=bottom;labelBackgroundColor=none;endArrow=open;endFill=0;dashed=1;rounded=0;exitX=1;exitY=0.5;exitDx=0;exitDy=0;entryX=0;entryY=0.5;entryDx=0;entryDy=0;" parent="1" source="rh8_w1IoDhliuncmIyZ2-20" target="rh8_w1IoDhliuncmIyZ2-23" edge="1">
          <mxGeometry width="160" relative="1" as="geometry">
            <mxPoint x="870" y="350" as="sourcePoint" />
            <mxPoint x="965" y="379" as="targetPoint" />
          </mxGeometry>
        </mxCell>
        <mxCell id="rh8_w1IoDhliuncmIyZ2-28" value="&amp;lt;&amp;lt;includes&amp;gt;&amp;gt;" style="html=1;verticalAlign=bottom;labelBackgroundColor=none;endArrow=open;endFill=0;dashed=1;rounded=0;exitX=1;exitY=0.5;exitDx=0;exitDy=0;entryX=0;entryY=1;entryDx=0;entryDy=0;" parent="1" source="rh8_w1IoDhliuncmIyZ2-21" target="rh8_w1IoDhliuncmIyZ2-23" edge="1">
          <mxGeometry width="160" relative="1" as="geometry">
            <mxPoint x="870" y="400" as="sourcePoint" />
            <mxPoint x="950" y="400" as="targetPoint" />
          </mxGeometry>
        </mxCell>
        <mxCell id="rh8_w1IoDhliuncmIyZ2-39" value="&amp;lt;&amp;lt;includes&amp;gt;&amp;gt;" style="html=1;verticalAlign=bottom;labelBackgroundColor=none;endArrow=open;endFill=0;dashed=1;rounded=0;exitX=1;exitY=1;exitDx=0;exitDy=0;entryX=0;entryY=0;entryDx=0;entryDy=0;" parent="1" source="rh8_w1IoDhliuncmIyZ2-14" target="rh8_w1IoDhliuncmIyZ2-15" edge="1">
          <mxGeometry width="160" relative="1" as="geometry">
            <mxPoint x="870" y="450" as="sourcePoint" />
            <mxPoint x="1012" y="421" as="targetPoint" />
          </mxGeometry>
        </mxCell>
        <mxCell id="rh8_w1IoDhliuncmIyZ2-40" value="Match Making" style="ellipse;whiteSpace=wrap;html=1;" parent="1" vertex="1">
          <mxGeometry x="780" y="410" width="100" height="60" as="geometry" />
        </mxCell>
        <mxCell id="rh8_w1IoDhliuncmIyZ2-41" value="Database" style="shape=umlActor;verticalLabelPosition=bottom;verticalAlign=top;html=1;" parent="1" vertex="1">
          <mxGeometry x="1210" y="590" width="80" height="160" as="geometry" />
        </mxCell>
        <mxCell id="rh8_w1IoDhliuncmIyZ2-48" value="" style="endArrow=none;html=1;rounded=0;exitX=0.5;exitY=0.5;exitDx=0;exitDy=0;exitPerimeter=0;entryX=0;entryY=0.5;entryDx=0;entryDy=0;" parent="1" source="rh8_w1IoDhliuncmIyZ2-7" target="rh8_w1IoDhliuncmIyZ2-16" edge="1">
          <mxGeometry width="50" height="50" relative="1" as="geometry">
            <mxPoint x="440" y="590" as="sourcePoint" />
            <mxPoint x="540" y="850" as="targetPoint" />
          </mxGeometry>
        </mxCell>
        <mxCell id="rh8_w1IoDhliuncmIyZ2-49" value="" style="endArrow=none;html=1;rounded=0;entryX=0.5;entryY=0.5;entryDx=0;entryDy=0;entryPerimeter=0;exitX=1;exitY=0.5;exitDx=0;exitDy=0;" parent="1" source="rh8_w1IoDhliuncmIyZ2-23" target="rh8_w1IoDhliuncmIyZ2-8" edge="1">
          <mxGeometry width="50" height="50" relative="1" as="geometry">
            <mxPoint x="860" y="460" as="sourcePoint" />
            <mxPoint x="910" y="410" as="targetPoint" />
          </mxGeometry>
        </mxCell>
        <mxCell id="rh8_w1IoDhliuncmIyZ2-50" value="" style="endArrow=none;html=1;rounded=0;entryX=0.5;entryY=0.5;entryDx=0;entryDy=0;entryPerimeter=0;exitX=1;exitY=1;exitDx=0;exitDy=0;" parent="1" source="rh8_w1IoDhliuncmIyZ2-17" target="rh8_w1IoDhliuncmIyZ2-41" edge="1">
          <mxGeometry width="50" height="50" relative="1" as="geometry">
            <mxPoint x="860" y="810" as="sourcePoint" />
            <mxPoint x="910" y="760" as="targetPoint" />
          </mxGeometry>
        </mxCell>
        <mxCell id="rh8_w1IoDhliuncmIyZ2-51" value="" style="endArrow=none;html=1;rounded=0;entryX=0.5;entryY=0.5;entryDx=0;entryDy=0;entryPerimeter=0;exitX=1;exitY=0.5;exitDx=0;exitDy=0;" parent="1" source="rh8_w1IoDhliuncmIyZ2-18" target="rh8_w1IoDhliuncmIyZ2-41" edge="1">
          <mxGeometry width="50" height="50" relative="1" as="geometry">
            <mxPoint x="860" y="890" as="sourcePoint" />
            <mxPoint x="910" y="840" as="targetPoint" />
          </mxGeometry>
        </mxCell>
        <mxCell id="rh8_w1IoDhliuncmIyZ2-52" value="&amp;lt;&amp;lt;includes&amp;gt;&amp;gt;" style="html=1;verticalAlign=bottom;labelBackgroundColor=none;endArrow=open;endFill=0;dashed=1;rounded=0;exitX=0.5;exitY=1;exitDx=0;exitDy=0;entryX=0;entryY=0;entryDx=0;entryDy=0;" parent="1" source="rh8_w1IoDhliuncmIyZ2-16" target="rh8_w1IoDhliuncmIyZ2-18" edge="1">
          <mxGeometry width="160" relative="1" as="geometry">
            <mxPoint x="870" y="450" as="sourcePoint" />
            <mxPoint x="1012" y="421" as="targetPoint" />
          </mxGeometry>
        </mxCell>
        <mxCell id="rh8_w1IoDhliuncmIyZ2-53" value="" style="endArrow=none;html=1;rounded=0;entryX=0.5;entryY=0.5;entryDx=0;entryDy=0;entryPerimeter=0;exitX=1;exitY=1;exitDx=0;exitDy=0;" parent="1" source="rh8_w1IoDhliuncmIyZ2-16" target="rh8_w1IoDhliuncmIyZ2-41" edge="1">
          <mxGeometry width="50" height="50" relative="1" as="geometry">
            <mxPoint x="780" y="860" as="sourcePoint" />
            <mxPoint x="1260" y="890" as="targetPoint" />
          </mxGeometry>
        </mxCell>
        <mxCell id="rh8_w1IoDhliuncmIyZ2-54" value="&amp;lt;&amp;lt;includes&amp;gt;&amp;gt;" style="html=1;verticalAlign=bottom;labelBackgroundColor=none;endArrow=open;endFill=0;dashed=1;rounded=0;exitX=1;exitY=0.5;exitDx=0;exitDy=0;entryX=0;entryY=0.5;entryDx=0;entryDy=0;" parent="1" source="rh8_w1IoDhliuncmIyZ2-14" target="Q_qiXAVVkeNUHolEITv3-1" edge="1">
          <mxGeometry width="160" relative="1" as="geometry">
            <mxPoint x="590" y="430" as="sourcePoint" />
            <mxPoint x="645" y="479" as="targetPoint" />
          </mxGeometry>
        </mxCell>
        <mxCell id="rh8_w1IoDhliuncmIyZ2-55" value="&amp;lt;&amp;lt;includes&amp;gt;&amp;gt;" style="html=1;verticalAlign=bottom;labelBackgroundColor=none;endArrow=open;endFill=0;dashed=1;rounded=0;exitX=1;exitY=0;exitDx=0;exitDy=0;entryX=0;entryY=0.5;entryDx=0;entryDy=0;" parent="1" source="rh8_w1IoDhliuncmIyZ2-14" target="rh8_w1IoDhliuncmIyZ2-40" edge="1">
          <mxGeometry width="160" relative="1" as="geometry">
            <mxPoint x="923" y="350" as="sourcePoint" />
            <mxPoint x="1012" y="379" as="targetPoint" />
          </mxGeometry>
        </mxCell>
        <mxCell id="rh8_w1IoDhliuncmIyZ2-56" value="&amp;lt;&amp;lt;extends&amp;gt;&amp;gt;" style="html=1;verticalAlign=bottom;labelBackgroundColor=none;endArrow=open;endFill=0;dashed=1;rounded=0;exitX=0;exitY=0;exitDx=0;exitDy=0;entryX=0.5;entryY=1;entryDx=0;entryDy=0;" parent="1" source="rh8_w1IoDhliuncmIyZ2-17" target="rh8_w1IoDhliuncmIyZ2-40" edge="1">
          <mxGeometry width="160" relative="1" as="geometry">
            <mxPoint x="973" y="450" as="sourcePoint" />
            <mxPoint x="1052" y="421" as="targetPoint" />
          </mxGeometry>
        </mxCell>
        <mxCell id="rh8_w1IoDhliuncmIyZ2-57" value="" style="endArrow=none;html=1;rounded=0;entryX=0.5;entryY=0.5;entryDx=0;entryDy=0;entryPerimeter=0;exitX=1;exitY=0.5;exitDx=0;exitDy=0;" parent="1" source="rh8_w1IoDhliuncmIyZ2-15" target="rh8_w1IoDhliuncmIyZ2-41" edge="1">
          <mxGeometry width="50" height="50" relative="1" as="geometry">
            <mxPoint x="740" y="490" as="sourcePoint" />
            <mxPoint x="1260" y="890" as="targetPoint" />
          </mxGeometry>
        </mxCell>
        <mxCell id="N1-xa9nYJT_Gg3-h3eif-2" value="&amp;lt;&amp;lt;includes&amp;gt;&amp;gt;" style="html=1;verticalAlign=bottom;labelBackgroundColor=none;endArrow=open;endFill=0;dashed=1;rounded=0;exitX=0.5;exitY=0;exitDx=0;exitDy=0;entryX=0;entryY=1;entryDx=0;entryDy=0;" parent="1" source="rh8_w1IoDhliuncmIyZ2-16" target="rh8_w1IoDhliuncmIyZ2-14" edge="1">
          <mxGeometry width="160" relative="1" as="geometry">
            <mxPoint x="730" y="540" as="sourcePoint" />
            <mxPoint x="750" y="450" as="targetPoint" />
          </mxGeometry>
        </mxCell>
        <mxCell id="N1-xa9nYJT_Gg3-h3eif-3" value="&amp;lt;&amp;lt;includes&amp;gt;&amp;gt;" style="html=1;verticalAlign=bottom;labelBackgroundColor=none;endArrow=open;endFill=0;dashed=1;rounded=0;exitX=0.5;exitY=0;exitDx=0;exitDy=0;entryX=0.5;entryY=1;entryDx=0;entryDy=0;" parent="1" source="rh8_w1IoDhliuncmIyZ2-18" target="rh8_w1IoDhliuncmIyZ2-14" edge="1">
          <mxGeometry width="160" relative="1" as="geometry">
            <mxPoint x="740" y="550" as="sourcePoint" />
            <mxPoint x="760" y="460" as="targetPoint" />
          </mxGeometry>
        </mxCell>
        <mxCell id="Q_qiXAVVkeNUHolEITv3-1" value="Profile" style="ellipse;whiteSpace=wrap;html=1;" vertex="1" parent="1">
          <mxGeometry x="700" y="490" width="100" height="60" as="geometry" />
        </mxCell>
        <mxCell id="Q_qiXAVVkeNUHolEITv3-2" value="&amp;lt;&amp;lt;includes&amp;gt;&amp;gt;" style="html=1;verticalAlign=bottom;labelBackgroundColor=none;endArrow=open;endFill=0;dashed=1;rounded=0;exitX=1;exitY=0.5;exitDx=0;exitDy=0;entryX=0;entryY=0.5;entryDx=0;entryDy=0;" edge="1" parent="1" source="Q_qiXAVVkeNUHolEITv3-1" target="rh8_w1IoDhliuncmIyZ2-17">
          <mxGeometry width="160" relative="1" as="geometry">
            <mxPoint x="660" y="540" as="sourcePoint" />
            <mxPoint x="790" y="450" as="targetPoint" />
          </mxGeometry>
        </mxCell>
        <mxCell id="Q_qiXAVVkeNUHolEITv3-3" value="" style="endArrow=none;html=1;rounded=0;exitX=1;exitY=1;exitDx=0;exitDy=0;" edge="1" parent="1" source="Q_qiXAVVkeNUHolEITv3-1">
          <mxGeometry width="50" height="50" relative="1" as="geometry">
            <mxPoint x="1010" y="575" as="sourcePoint" />
            <mxPoint x="1250" y="670" as="targetPoint" />
          </mxGeometry>
        </mxCell>
      </root>
    </mxGraphModel>
  </diagram>
</mxfile>
